<svg
  xmlns="http://www.w3.org/2000/svg"
  width="379.063"
  height="336.719"
  viewBox="0 0 379.063 336.719"
  data-prefix="ievb08k23"
>
  <path
    data-name="Фигура 2"
    d="M86.355 0q-33.426 0-54.4 20.94A68.821 68.821 0 0 0 13.77 53.383c-3.331 13.124 2.864 26.594 13.794 34.606q46.989 34.44 47 86.764 0 63.593-68.8 129.359a19 19 0 0 0 24.771 28.726q66.014-51.217 100.4-105.394 37.988-59.895 38.007-127.3 0-43.193-22.608-71.668T86.355 0zm270.1 28.473Q333.84 0 296.484 0q-33.426 0-54.4 20.94a68.814 68.814 0 0 0-18.186 32.443c-3.331 13.124 2.864 26.594 13.794 34.606q46.991 34.44 47 86.764 0 63.593-68.806 129.359a18.9 18.9 0 0 0-1.175 25.935 18.976 18.976 0 0 0 25.946 2.791q66.015-51.217 100.388-105.394 38-59.895 38.018-127.3-.001-43.196-22.611-71.671z"
    fill-rule="evenodd"
    fill="#f34848"
  ></path>
</svg>
