<svg xmlns="http://www.w3.org/2000/svg" width="9.031" height="16.031" viewBox="0 0 9.031 16.031" data-prefix="iykgub48u">
<path  d="M4.525 8.255A4.131 4.131 0 1 0 .512 4.127a4.075 4.075 0 0 0 4.013 4.128zm0-5.838a1.71 1.71 0 1 1-1.662 1.71 1.688 1.688 0 0 1 1.662-1.71zm1.623 9.207a7.42 7.42 0 0 0 2.331-.993 1.232 1.232 0 0 0 .368-1.669 1.155 1.155 0 0 0-1.621-.38 4.974 4.974 0 0 1-5.4 0 1.154 1.154 0 0 0-1.62.38 1.232 1.232 0 0 0 .368 1.669 7.428 7.428 0 0 0 2.33.993L.661 13.932a1.235 1.235 0 0 0 0 1.711 1.154 1.154 0 0 0 1.663 0l2.2-2.268 2.206 2.268a1.151 1.151 0 0 0 1.662 0 1.233 1.233 0 0 0 0-1.711z" fill-rule="evenodd" fill="white"></path>
</svg>