<svg xmlns="http://www.w3.org/2000/svg" width="56.532" height="56.812" viewBox="0 0 56.532 56.812"
                    data-prefix="i39vm3mdo">
                    <path
                        d="M28.269.006a28.4 28.4 0 1 0 28.266 28.4A28.366 28.366 0 0 0 28.269.006zm0 53.811a25.411 25.411 0 1 1 25.29-25.411 25.379 25.379 0 0 1-25.29 25.41zm0-41.245a1.491 1.491 0 0 0 1.488-1.5V6.611a1.488 1.488 0 1 0-2.975 0v4.461a1.491 1.491 0 0 0 1.487 1.499zm-.753 17.118c.022.013.043.026.065.037a1.432 1.432 0 0 0 .3.12c.015 0 .03.007.046.011a1.508 1.508 0 0 0 .34.043 1.5 1.5 0 0 0 .331-.04l.032-.007a1.43 1.43 0 0 0 .3-.112c.018-.009.036-.017.053-.027s.037-.017.055-.028l15.737-9.521a1.5 1.5 0 0 0 .507-2.052 1.483 1.483 0 0 0-2.042-.509l-14.929 9.032-12.242-8.219a1.492 1.492 0 0 0-1.649 2.488l13.023 8.745c.026.013.049.024.073.038zm-16.493-2.778h-4.44a1.495 1.495 0 0 0 0 2.989h4.44a1.495 1.495 0 0 0 0-2.99zm17.246 17.33a1.491 1.491 0 0 0-1.487 1.494v4.461a1.488 1.488 0 1 0 2.975 0v-4.461a1.491 1.491 0 0 0-1.488-1.495zm21.687-17.33h-4.439a1.495 1.495 0 0 0 0 2.989h4.439a1.495 1.495 0 0 0 0-2.99z"
   
                        fill-rule="evenodd"  fill="#f34848"></path>
                </svg>