<?xml version="1.0" encoding="UTF-8"?>
<svg id="_Слой_1" xmlns="http://www.w3.org/2000/svg" version="1.1" viewBox="0 0 1920 2000">
  <!-- Generator: Adobe Illustrator 29.0.1, SVG Export Plug-In . SVG Version: 2.1.0 Build 192)  -->
  <defs>
    <style>
      .st0 {
        fill: red;
      }
    </style>
  </defs>
  <path class="st0" d="M526.9,1360.8c-11.9,2.2-23.5,4.3-35.4,6.4l-2.1-149.8c38.8-7.3,78.1-13.9,116.9-21.2.4,45.4.5,104.8.9,150.1-12.2,2.2-24.4,4.5-36.6,6.6-.3-33.2,0-73.1-.3-106.3-14.6,3-29.6,5.8-44.3,8.8.4,32.7.5,72.8.9,105.5h0Z"/>
  <path class="st0" d="M735.1,1218c-5-12.8-12.5-20.4-14.3-22.2-3.2-3.1-9.1-8.7-18.6-12-7.2-2.4-13.1-2.4-16.3-2.3-12.2.2-21.1,4.7-26.7,7.5-8.2,4.2-14,9.1-17.3,12.2-7.9,7.6-12.2,14.9-15.3,20.4-3.6,6.3-8.8,15.6-11.4,29-2.9,14.7-1.2,27.1.3,34.3,2.1,10,4.7,22.7,15.5,33.7,11.2,11.5,24.4,14.1,28.6,14.8,10.7,1.7,19.1-.6,24.1-2,2.1-.6,10.2-3,19.3-9.1,2.4-1.6,11-7.5,19-18.4,1.9-2.5,8.4-11.5,12.8-25.3.9-2.7,4.6-14.4,4.7-30.4,0-8.7.1-18.7-4.5-30.5h0ZM698.5,1269.5c-1.1,3.4-3.4,9.8-9.1,15.5-2.5,2.5-5.8,5.8-11.3,6.9-6.6,1.4-12-1.3-13.6-2.1,0,0-2.3-1.2-4.2-3-6.5-6-11.8-25-4.2-41.8,4-8.9,13.7-21.5,24.7-20.6,4.5.4,8,2.8,9.2,3.7,6.3,4.5,8.4,11.3,9.5,15.3,3.5,11.9.3,22.2-1.1,26.2h0Z"/>
  <path class="st0" d="M857.7,1261.8c-.3-33.9-.3-78.1-.6-112-31.4,5.8-59.5,11-91.7,16.7,1.4,19.5-1.2,46.3-3.1,57.1-1.7,9.6-4,18.3-6.7,28-3.3,12.3-6.6,22.5-9,29.9-3.2.4-6.4.9-9.6,1.3.3,18.7.5,37.4.8,56.1,11.2-2.1,22.5-4.2,33.7-6.3,0-5.6-.2-11.3-.2-16.9,21.5-4.2,42.9-7.5,64.4-11.7,0,6,.2,11.2.2,17.2,11.6-2.2,23.3-4.3,34.9-6.5l-.4-55.5c-4.2.9-8.4,1.7-12.6,2.6h0ZM781.7,1275.5c2.6-7.6,4.6-14,6-18.6,3.5-11.8,5.8-19.5,7.4-29.7,1.2-7.2,1.6-13.2,1.8-17.1,8.6-1.6,17.1-3.2,25.7-4.8.4,20.6.8,41.3,1.3,61.9-14,2.7-28.1,5.5-42.1,8.2Z"/>
  <path class="st0" d="M874.4,1146.6c.4,46.2,1.7,103.6,2.1,149.9,12.9-2.3,24.6-4.4,37.3-6.8-.4-18-.8-35.9-1.2-53.9,11.8,16.2,23,31.6,34.7,47.8,14.8-2.8,29.1-5.4,43.8-8-16.4-22.4-32-43.9-48.3-66.4,15.8-24.4,34.8-59.9,50.6-84.3-15.3,2.9-28,5-43.3,7.9-10.6,17.2-27.1,46.4-37.7,63.6,0-15,.2-41.8.3-56.8-12.4,2.3-26,4.7-38.4,7h0Z"/>
  <path class="st0" d="M630.2,877.6c-.3,64.2-.7,128.4-1.1,192.6,16.5-3.2,33.1-5.8,49.6-9-.2-24.9-.6-50.4-.8-75.3,15.2,22.7,30.4,45.4,45.7,68.1,19.5-3.3,38.9-6.7,58.4-10.1-21.2-31.4-42.5-62.9-63.7-94.3,21.3-33.6,42.6-67.2,64-100.8-20.3,3.7-40.5,7.4-60.8,11.2-14.3,23.7-28.7,47.5-43,71.2.3-20.8.7-41.6,1-62.4-16.4,3-32.8,5.9-49.3,8.8h0Z"/>
  <path class="st0" d="M1083.1,1108.7c-12.9,2.2-22.2,4.2-35.2,6.4-17.9,50.4-36.7,109.8-54.6,160.2,13.3-2.5,26.5-4.8,39.8-7.2,2.4-7.7,4.8-15,7.2-22.7,17.6-3.3,35.1-6.5,52.7-9.8,2.8,6.7,5.7,13.4,8.6,20.1,13.2-2.5,26.5-4.7,39.7-7.2-18.5-43.3-39.7-96.4-58.2-139.7h0ZM1053.8,1206.9c4.1-11.2,8.2-22.3,12.2-33.4,4.8,9.9,9.7,19.9,14.5,29.8-8.9,1.2-17.8,2.4-26.8,3.6Z"/>
  <path class="st0" d="M1032.7,806.3c-17.1,2.8-34.1,5.6-51.2,8.4-24.5,69.4-49,138.8-73.5,208.1,17.5-3.2,35.1-6.3,52.6-9.5,3.4-10.6,6.7-21.2,10.1-31.8,23.2-4.2,46.4-8.4,69.5-12.6,3.6,9.3,7.3,18.6,10.9,27.9,17.4-3.2,34.9-6.3,52.3-9.5-23.6-60.3-47.1-120.7-70.7-181h0ZM989,928.4c5.6-15.4,11.2-30.7,16.7-46.1,6.2,13.9,12.4,27.7,18.6,41.6-11.8,1.5-23.5,3-35.3,4.5h0Z"/>
  <path class="st0" d="M1622.5,1010.7c-13.4,2.3-24.3,4.6-37.8,6.9-18.6,52.2-37.8,108.1-56.4,160.4,13.8-2.6,27.5-5.1,41.3-7.7,2.5-8,5.1-16,7.6-23.9,18.2-3.4,36.4-6.8,54.6-10.2,2.9,6.9,6.3,14.5,9.2,21.5,13.7-2.6,27.6-4.9,41.3-7.5-19.2-44.9-40.8-94.5-59.9-139.4h0ZM1591.2,1106.4c4.2-11.6,8.5-23.1,12.7-34.7,5,10.3,10,20.6,15.1,30.9-9.2,1.2-18.5,2.5-27.8,3.7h0Z"/>
  <path class="st0" d="M1258.3,1141.5c-13.5,2.4-26.9,4.8-40.4,7.1-.5-2.2-1.7-5.7-4.6-9.2-6-7.2-14.6-8.1-16.6-8.2-9.9-.7-17,5.2-20.2,7.9-8.5,7.1-11,16.2-12.2,20.5-1.2,4.4-3.1,11.9-.3,20.5.8,2.6,2.8,8.4,8.4,13.2,1.5,1.3,7,5.7,15,6,11.6.4,19.3-8.2,21.6-10.8,5.4-6,7.2-12.6,7.9-16.2,14-2.6,28-5.2,42-7.8-.2,3.7-.8,8.7-2.2,14.4-1.1,4.6-3.9,14-10.4,24.4-10.3,16.3-23.5,24.6-27.7,27.1-7.1,4.2-13.3,6.4-16.8,7.5-4.5,1.4-13.3,4.1-23.8,3.6-21.3-1.2-35.5-15.3-38.2-18.1-10.8-11.2-14.2-23.6-15.9-30.2-.8-3-3.5-14.5-1.6-29.5,3.9-30.3,23.4-49,27-52.4,6.3-5.8,18.3-15.2,35.8-19.8,8.4-2.2,19.6-5.1,33.2-1.4,20.5,5.7,30.6,22.4,32.5,25.8,6,10.4,7.2,20.3,7.4,25.6h0Z"/>
  <path class="st0" d="M1258.4,845.7c-17.5,3-35,6-52.5,9-.6-2.9-2.1-7.8-5.7-12.6-7.7-10-18.8-11.3-21.4-11.5-12.9-1.1-22.1,6.8-26.3,10.4-11.1,9.5-14.6,21.8-16.2,27.7-1.6,6-4.2,16.1-.8,27.9,1,3.6,3.4,11.5,10.7,18.1,1.9,1.8,8.9,7.9,19.3,8.5,15,.8,25.2-10.9,28.1-14.3,7-8.1,9.6-17,10.6-21.9,18.2-3.3,36.4-6.6,54.6-9.9-.4,5.1-1.2,11.8-3.1,19.6-1.6,6.2-5.3,19-13.9,33-13.6,22-30.8,33.1-36.3,36.4-9.2,5.6-17.4,8.5-21.9,9.9-5.9,1.8-17.3,5.4-30.9,4.4-27.6-2-45.7-21.6-49.1-25.3-13.8-15.5-17.9-32.3-20.1-41.5-.9-4.1-4.3-19.8-1.6-40.3,5.6-41.2,31.2-66.3,35.9-70.8,8.2-7.8,24-20.4,46.8-26.3,11-2.9,25.5-6.6,43-1.2,26.5,8.2,39.2,31.1,41.7,35.7,7.5,14.3,8.9,27.8,9.1,35.1h0Z"/>
  <path class="st0" d="M1260.4,1076.5c.3,14.8.7,29.4,1,44.3,13.9-2.6,27.8-5.2,41.7-7.8.2,33,.4,73,.5,106,13.5-2.5,26.8-4.8,40.3-7.3-.4-33-.6-73.2-1-106.2,13.8-2.5,27.6-5,41.5-7.5-.2-15.1-.5-28.7-.7-43.8-41.1,7.9-82.2,14.5-123.3,22.4Z"/>
  <path class="st0" d="M1391.8,1052.6c.7,48.2,1.4,101.7,2.1,149.9,13.5-2.4,26.9-4.8,40.4-7.3-.2-17.1-.5-34.1-.7-51.2,16.6-3.3,33.2-6.5,49.7-9.8.2,17.4.5,34.5.7,51.9,13.6-2.5,27.1-4.9,40.7-7.4-.7-48.5-1.4-101.3-2.1-149.8-13.5,2.5-27.1,4.8-40.5,7.4.1,16.6.5,38,.6,54.6-16.7,3.3-33.3,6.5-50,9.8.1-16.7.2-38.8.3-55.5-13.7,2.5-27.5,5-41.2,7.5h0Z"/>
  <path class="st0" d="M1729.3,992.3c-2.6.5-8.5,1.7-15.2,5.4-10.3,5.8-15.9,14-18.7,18.2-7.7,11.6-9.4,22.7-9.9,26.1-.7,5.6-2.1,17.4,3.8,30.1,2.3,4.9,7.1,15.2,18,19.1,3.8,1.3,7.2,1.5,9.5,1.5-10.3,18.9-20.7,37.8-31,56.7,15.5-2.9,30.8-5.5,46.4-8.4,9.9-17.9,19.9-36.1,29.8-54,5.2-.9,10.4-1.8,15.7-2.6.2,16.1.3,32.2.5,48.3,15.6-2.8,28.1-5.1,42.1-7.6-1.4-41.9-1.3-97-2.5-149.8-40.7,7.7-71,13.7-88.4,17.1h0ZM1751,1050.6c-.6.1-1.4.3-2.4.4-2.1.4-3.7.6-4,.6-2.6.4-7,1-10.7-1.3-4.5-2.8-5.3-8.1-5.3-8.3-.7-5.5,2.8-9.3,3.5-10.1,2.6-2.7,6-3.6,10.4-4.8,1.7-.5,3.2-.7,4.2-.9,10.4-1.7,20.9-3.4,31.3-5.2.2,8.1.3,16.2.5,24.3-9.2,1.7-18.3,3.5-27.5,5.2h0Z"/>
  <path class="st0" d="M1563.7,712.3c-16.9,2.8-33.8,5.5-50.7,8.3-24.3,68.7-48.5,137.4-72.8,206.1,17.4-3.1,34.7-6.3,52.1-9.4,3.3-10.5,6.7-21,10-31.5,23-4.2,45.9-8.3,68.9-12.4,3.6,9.2,7.2,18.4,10.8,27.7,17.3-3.1,34.5-6.3,51.8-9.4-23.3-59.8-46.7-119.5-70-179.3h0ZM1520.5,833.2c5.5-15.2,11-30.4,16.6-45.6,6.1,13.7,12.3,27.5,18.4,41.2-11.7,1.5-23.3,3-35,4.4h0Z"/>
  <path class="st0" d="M1265.7,765v191.2c17-3,33.9-5.9,50.9-8.9v-67.8c20.9-4,41.8-8,62.7-12v69.2c17.1-3.1,34.2-6.2,51.3-9.2v-192.6c-17,3.1-33.9,6.2-50.9,9.3-.1,22-.2,44-.3,66-21,4-42,8-63.1,12.1.4-22.1.9-44.2,1.3-66.3-17.3,3.1-34.6,6.2-51.9,9.2h0Z"/>
  <path class="st0" d="M1700.6,683.8c-3.2.6-10.7,2.1-19.2,6.9-13.1,7.5-20.2,18.2-23.8,23.7-9.9,15.2-12.3,29.8-12.9,34.3-1,7.4-3,23,4.3,39.9,2.8,6.5,8.7,20.2,22.3,25.5,4.7,1.8,9,2.2,11.9,2.1-13.3,24.8-26.6,49.7-40,74.5,19.6-3.5,39.1-7.1,58.7-10.6,12.7-23.5,25.5-47,38.2-70.5,6.6-1.1,13.2-2.1,19.7-3.2,0,21.3-.2,42.6-.2,63.8,17.6-3.1,36.5-7.2,54.1-10.3.4-66.1-2.9-130.9-2.5-197-51.4,9.4-88.7,16.6-110.6,20.8h0ZM1726.8,761.1c-.7.1-1.8.3-3,.5-2.6.5-4.7.7-5,.8-3.3.4-8.8,1.1-13.5-1.9-5.6-3.7-6.6-10.8-6.6-11.1-.8-7.2,3.7-12.3,4.6-13.3,3.3-3.5,7.6-4.7,13.2-6.1,2.2-.6,4-.9,5.3-1.1,13.2-2.1,26.3-4.2,39.4-6.2,0,10.7.1,21.4.2,32.1-11.6,2.1-23.1,4.2-34.7,6.4h0Z"/>
  <path class="st0" d="M218.9,1194c1.4-.3,2.9-.7,4.3-1,2.2-.5,4.5-1.1,6.7-1.6,1.5-.5,3.1,0,3.8.9.7,1.1.3,2.5.2,2.8-.2.8-.7,1.4-.7,1.4,0,0,0,0,0,0-1.1,1.3-3.8,5.9-9.3,15.5-2.5,4.1-5.8,9.5-9.9,16.1-2.1,3.4-3.5,5.6-5.9,8.3-3.3,3.7-6.6,6.1-9,7.6-4.6,2.9-8.5,4.3-9.8,4.7-2.7.9-4.8,1.2-5.7,1.4-6.1,1.1-20.5,3.7-40,7.1-18.9,3.3-37.8,6.7-56.6,10-3.5.5-7,1-10.4,1.5-1.6.2-3.8.5-6.5.7-5.6.5-9.8.8-14.3.3-2.7-.3-9.2-1.1-16-5.4-2-1.2-7.2-4.6-10.9-11-1.9-3.3-3-6.5-3.5-8.2-.6-1.8-1.3-4.1-1.6-7.2-.2-1.4-.2-2.7-.3-5.3,0-2,0-2.7,0-5.3,0-2.8-.1-4.8-.1-5.1-.1-3.3-.4-84.8-.9-272,0-2.5-.1-4.7-.1-6.4,0-1.5,0-3.4,0-7.2,0-3.8,0-4,0-4.5.1-1.1.4-3.2,1.6-6.7,1.9-5.1,4.3-8.8,5.7-10.8,3.3-4.8,6.5-7.9,7.3-8.6,3.3-3.1,6.2-5,7.2-5.6,4.5-2.9,8.5-4.2,11.8-5.3,3.8-1.3,6.6-1.8,11.4-2.8,4.6-.9,9.7-1.8,14.7-2.5.9-.1,1.6-.2,2.1-.3,41.2-7.4,82.4-14.8,123.6-22.1,127.2-23.2,254.4-46.5,381.5-69.7,382.4-69.5,764.8-138.9,1147.2-208.4,31.3-5.8,62.5-11.5,93.8-17.2,3.3-.7,6.7-1.4,10-2.1,2.5-.6,6.3-1.3,10.8-1.7,5.6-.5,10.2-1,16.1.3,5.7,1.2,9.8,3.3,11.4,4.2,5.4,3,8.7,6.6,10.7,8.8,2,2.2,3.6,4.3,4.8,6.3,1.2,1.9,2.2,3.7,2.9,6.3.4,1.7.6,3.2.7,4.4,0,.5.1,1.4.1,5,0,2.3,0,3.7,0,3.7,0,3.3-.3,31.5-.7,70.4v223.4c0,1,0,2.3,0,4,0,2.3,0,4.8-.3,7-.2,1.7-.4,4.8-1.6,8.2-1.5,4.4-3.7,7.3-5.6,9.8-3.7,4.8-7.4,7.6-8.3,8.3-2,1.5-5.2,3.8-9.8,5.3-2.2.7-4.5,1.1-7.4,1.7-2.2.4-3.3.5-5.7.9-2.2.3-5.5.9-9.6,1.7-437,79.4-874.1,158.7-1311.1,238.1-8.7,1.6-15.5,2.7-20.1,3.5-3.6.6-5.9,1-11.3,1.9-7.6,1.2-7.4,1.2-9.9,1.5-6.9.9-8.6,1.3-14.7,2.2-5.3.8-10.4,1.9-15.1,3.4-3,.9-4.4,1.8-7.8,3.7-1.2.7-3.4,2-7,5.7-2.3,2.4-3.8,4.4-6.3,8.2-6.1,9.2-8.4,13.4-8.4,13.4-8.6,15.6-24.6,44.8-31.6,57.3-2.8,5.1-5.1,9.2-6.4,11.4-5.3,9-10.6,18-15.9,26.9-6,10.4-12,20.8-18,31.2-4.6,7.7-9.2,15.3-13.7,23-4.4,7.2-7.8,12.9-10.2,16.9-1.9,3.3-3.9,6.6-5.8,9.9-1.8,3.1-3.6,6.1-5.4,9.1-.6,1-1.4,2.3-2.5,4-.5.8-2.1,3-3.7,4.6-4.4,4.6-9.9,6.4-11.4,6.9-3.2,1-5.5,1.1-10,1.3-5.7.2-9.6.4-14.5-1.2-2.5-.8-6.2-2.1-9.4-5.6-2.3-2.5-3.4-5.2-4.1-6.9-1.1-2.8-1.5-5-2-7.5-.3-1.8-.6-3.9-.8-7.7-.3-6-.1-10.5-.1-10.6.3-6.6-.2-160.8-1.1-401.9-20.6,3.8-41.2,7.6-61.8,11.4,0,47-.2,94.1-.3,141.1l-51.5,9.2c.2-64.2.4-128.4.5-192.6,54.6-9.3,109.2-18.7,163.8-28-.2,88.4-.4,137.6-.6,226,0,38.7-.2,116.5-.3,155.2,0,2,0,4,0,6,0,1.3,0,2.5,0,3.8,0,0,0,.2,0,.3,0,1.1.2,3.7,1.3,4.1,1.1.4,2.9-1.5,3.6-2.7.2-.3.4-.6.5-.9l5.6-10,12.5-20.9c25.5-43.8,51.1-87.7,76.6-131.5.2-.3.4-.7.8-1.2.3-.3,1.1-1.3,2.4-2.2.8-.5,1.4-.8,2-1,.9-.4,1.8-.7,2.8-.9,1.8-.4,6.4-1.2,12.5-2,12.3-2.1,24.6-4.1,36.9-6.1,19.1-3.4,38.2-6.9,57.4-10.3,41.2-7.4,82.5-14.8,123.7-22.2,69.4-12.8,138.8-25.6,208.2-38.4,56.9-10.8,113.9-21.5,170.8-32.3,77.5-14.1,155.1-28.3,232.6-42.4,76.8-13.9,153.6-27.7,230.4-41.6,75.2-13.6,150.3-27.2,225.5-40.8,30.5-5.2,61-10.4,91.5-15.7,5.5-.8,9.7-1.5,12.6-2,0,0,2.2-.4,5.9-1,2.2-.4,3.9-.7,5.8-1.2,3.5-.8,5.3-1.2,6-2,1.6-1.7,1.6-4.6,1.6-6.2,0-.7,0-.8,0-2.7,0-1.8,0-3.2,0-4.2,0-6.6-.2-13.2-.2-19.7-.3-21.6-.6-43.2-.9-64.8-.1-38.6-.3-77.1-.4-115.7,0-19.5-.1-39-.2-58.5,0-.2,0-.4,0-.6-.1-1.7-.2-2.6-.3-2.9,0-.1-.4-1.4-1.4-2.3-.8-.7-1.8-.8-3.6-.8-2.7,0-4.8.5-6.8,1-1,.2-3,.7-5.6,1.2-6.7,1.4-13.4,2.8-20.1,4.2-4.3.8-8.7,1.6-13.1,2.5-10.4,1.9-20.8,3.8-31.2,5.7-19.3,3.5-38.5,7.1-57.8,10.7-18.3,3.3-36.7,6.6-55,9.9-24.7,4.4-49.4,8.8-74.2,13.2-22.5,4.2-45,8.4-67.5,12.5-22.7,4.3-45.5,8.7-68.4,12.9-42.9,8-85.7,15.9-128.3,23.5-208.5,37.4-714.6,126.1-1204.4,217.7-1.2.2-11.2,2.1-12.3,2.3l-13.6,1.9c-1.8.2-4.1.6-6.6,1-2.1.3-3.3.6-4.4,1.5-.3.3-1.4,1.1-2,2.7-.3.8-.4,1.4-.4,2.4,0,1.1,0,2.1,0,2.8,0,1.2,0,2.3,0,3.5,0,5.2,0,10.5,0,15.7,0,8.1,0,12.1,0,16.9,0,9.8,0,73.3-.2,228.5,0,.2,0,.6,0,1,.1,2.8.2,4.1,1,4.9,1.2,1.1,3.4.7,4.4.6.3,0,.6-.1.7-.2,12.4-2.6,22.3-4.4,28.4-5.5,28-5.1,105.8-18.6,114.1-20.4h0Z"/>
  <path class="st0" d="M473.3,936.9c-3.1-6.1-7.5-10.7-7.5-10.7-.7-.7-3.2-3.2-7-5.8-5.1-3.5-9.7-5-11.4-5.5-.9-.3-4.6-1.4-9.6-1.8-2.8-.2-5.1-.2-6.6-.1-1.1,0-3.1.1-6.7.5-4.8.5-8.4,1.2-8.9,1.3-5.8,1.1-39.9,7.4-86.8,16.1.2,63.6.3,127.2.5,190.7,16-3.1,32-6.2,48-9.2v-60.8c19.4-3.4,31.6-5.3,39.8-6.3,2-.3,6.4-.8,12.1-2.4,1.6-.4,9.3-2.6,15.9-6.3,12.9-7.2,20-18.9,22.6-23.2,9.1-15.3,9.9-29.6,10.5-42.3.2-4.5.9-22.2-5.1-34.1h0ZM434,984.1c-3.6,6.4-10.3,8.2-11.8,8.5-.3,0-.6.1-1,.2-14.6,2.6-29.3,5.3-43.9,7.9,0-9.5,0-18.9-.1-28.4,13.2-2.5,26.5-5,39.7-7.5.2,0,.5,0,.9-.1,2.9-.4,10.4-1.3,15,3.4,2.6,2.6,3.1,5.9,3.2,6.8.7,4.5-1.2,7.8-2,9.2h0Z"/>
  <path class="st0" d="M936.4,854.1c-3.1-6.2-7.5-10.8-7.5-10.8-.7-.7-3.1-3.3-7-5.9-5.1-3.5-9.6-5.1-11.3-5.6-.9-.3-4.6-1.5-9.5-1.9-2.8-.2-5-.2-6.6-.1-1.1,0-3.1.1-6.6.5-4.7.6-8.3,1.2-8.8,1.3-5.8,1.1-39.6,7.5-86.1,16.3.2,64.5.3,129.1.5,193.6,15.9-3.1,31.8-6.3,47.7-9.4v-61.7c19.2-3.5,31.3-5.4,39.5-6.4,2-.3,6.3-.8,12-2.4,1.6-.5,9.2-2.7,15.8-6.4,12.8-7.3,19.9-19.2,22.4-23.6,9-15.5,9.8-30.1,10.5-42.9.2-4.5.9-22.5-5.1-34.6h0ZM897.4,902c-3.5,6.5-10.3,8.3-11.7,8.7-.3,0-.7.1-1,.2-14.5,2.7-29.1,5.4-43.6,8,0-9.6,0-19.2-.1-28.8,13.1-2.5,26.3-5.1,39.4-7.6.2,0,.5,0,.9-.1,2.8-.4,10.3-1.3,14.8,3.4,2.5,2.7,3.1,6,3.2,6.9.7,4.5-1.2,8-2,9.3h0Z"/>
  <path class="st0" d="M560.2,1046.7c-6.5,1-12.6-3.4-13.6-9.9-1-6.5,3.4-12.6,9.9-13.6l66.5-10.4c0-2.6,0-5.2-.1-8v-13.7l-62.7,9.8c-6.5,1-12.6-3.4-13.6-9.9-1-6.5,3.4-12.6,9.9-13.6l66.4-10.4c0-1.7,0-3.4,0-5.1,0-4.7,0-9.4,0-14.2l-62.6,9.8c-6.5,1-12.6-3.4-13.6-9.9-1-6.5,3.4-12.6,9.9-13.6l66.4-10.4c0-4.4-.8-10.7-3.9-17.3-2.8-5.9-6.2-9.5-7-10.2-1.1-1.1-5.8-5.7-13.5-8.6-4.8-1.8-8.7-2.1-11.7-2.4-4.9-.4-8.7,0-12.9.3-3.7.3-6.3.8-10.5,1.5-12.2,2-18.1,3.1-22.2,3.8-14,2.4-14.1,2.2-17,3.1-9.1,2.9-15,7.1-16.3,8-6.9,4.9-10.8,10.2-13.7,14.1-2.5,3.5-5,6.9-6.8,12-1.5,4.2-2,8-2.2,10-.4,2.9-.4,5.1-.4,7.9-.1,9.9-.1,14.8-.1,16.3,0,0,.2,9.3.2,24,0,12.5-.2,11-.2,25.3,0,10.6.2,13.2,0,20,0,1.5-.1,4.9-.1,9.4,0,4.9.2,8.2.2,9.6.2,5.1.4,7.6.8,9.9.4,2.1,1.2,6,3.6,10.4,2.2,4.2,4.8,6.8,6.7,8.7,1.8,1.8,4.3,4.3,8.3,6.6.8.4,4.3,2.3,9.9,3.6,3.9.9,10.9,1.8,19.8.1v60c16-2.2,32.1-4.5,48.1-6.7v-61.9c3-.8,7.1-2.2,11.6-4.7,1.4-.8,7.4-4.2,13.6-10.8,0,0,10.3-11.1,13.9-25,.3-1.3.6-2.6.8-3.5l-61.6,9.6Z"/>
</svg>